<?xml version="1.0" standalone="no"?>
<svg viewBox="-30 50 280 280" xmlns="http://www.w3.org/2000/svg">
  <path fill="#FFDC30" d="M33.9,-49.4C41.8,-47.6,44.6,-34.7,52.1,-22.5C59.6,-10.4,71.7,0.8,73.3,12.7C74.9,24.5,66,37,53.4,39.6C40.8,42.3,24.5,35.1,12.2,36.3C0,37.5,-8.3,47,-19.2,50.5C-30,54.1,-43.5,51.7,-50.9,43.8C-58.2,35.8,-59.5,22.3,-60,9.5C-60.4,-3.3,-60.1,-15.3,-55.6,-25.5C-51.1,-35.8,-42.6,-44.4,-32.6,-45.2C-22.7,-46,-11.3,-39.2,0.8,-40.5C13,-41.8,26,-51.2,33.9,-49.4Z" transform="translate(100 100)" />
</svg>
